# xmcd
#
# Track frame offsets: 
#        182
#        10307
#        21570
#        31430
#        41687
#        53150
#        66522
#        77127
#        87905
#        100072
#        109560
#        117470
#        129040
#        141177
#        152897
#        162695
#        173875
#        186180
#        197065
#
# Disc length: 2773 seconds
#
# Revision: 4
# Processed by: cddbd v1.5.2PL0 Copyright (c) Steve Scherf et al.
# Submitted via: ExactAudioCopyFreeDBPlugin 1.0
#
DISCID=0a0ad313
DTITLE=Clyde McPhatter - Deep Sea Ball:  The Best of Clyde McPhatter
DYEAR=1991
DGENRE=Rhythm and Blues
TTITLE0=I Can´t Stand Up Alone
TTITLE1=Seven Days
TTITLE2=Treasure of Love
TTITLE3=Rock and Cry
TTITLE4=I´m Lonely Tonight
TTITLE5=Without Love (There is Nothing)
TTITLE6=Deep Sea Ball
TTITLE7=Just to Hold My Hand
TTITLE8=My Island of Dreams
TTITLE9=No Matter What
TTITLE10=Come What May
TTITLE11=Lovey Dovey
TTITLE12=I´m Not Worthy of You
TTITLE13=A Lover´s Question
TTITLE14=Thirty Days
TTITLE15=You Went Back on Your Word Little Girl
TTITLE16=No Love Like Her Love
TTITLE17=Long Lonely Nights
TTITLE18=Since You´ve Been Gone
EXTD=
EXTT0=Yesterday: 27.05.1994
EXTT1=
EXTT2=Yesterday: 04.09.1998 , 04.06.2004
EXTT3=Yesterday: 04.06.2004
EXTT4=Yesterday: 06.12.1996
EXTT5=
EXTT6=Yesterday: 27.07.1997
EXTT7=
EXTT8=
EXTT9=
EXTT10=
EXTT11=
EXTT12=
EXTT13=Yesterday: 29.04.94 , 30.05.97
EXTT14=
EXTT15=Yesterday: 22.07.1994
EXTT16=
EXTT17=
EXTT18=Yesterday: 24.06.1994
PLAYORDER=
